HIERARCHY
ROOT Hips
{
    OFFSET   0.000000   0.000000   0.000000
    CHANNELS 6 Xposition Yposition Zposition Zrotation Xrotation Yrotation
    JOINT Chest
    {
        OFFSET   0.000000   8.007240   0.000000
        CHANNELS 3 Zrotation Xrotation Yrotation
        JOINT Chest2
        {
            OFFSET   0.000000  22.077100   0.000000
            CHANNELS 3 Zrotation Xrotation Yrotation
            JOINT Neck
            {
                OFFSET   0.000000  23.254800   0.000000
                CHANNELS 3 Zrotation Xrotation Yrotation
                JOINT Head
                {
                    OFFSET   0.000000  14.370000   1.956600
                    CHANNELS 3 Zrotation Xrotation Yrotation
                    End Site
                    {
                        OFFSET   0.000000  19.566000   0.000000
                    }
                }
            }
            JOINT LeftCollar
            {
                OFFSET   3.911900  19.017000  -0.467064
                CHANNELS 3 Zrotation Xrotation Yrotation
                JOINT LeftShoulder
                {
                    OFFSET  10.383700   0.000000   0.000000
                    CHANNELS 3 Zrotation Xrotation Yrotation
                    JOINT LeftElbow
                    {
                        OFFSET  26.662100   0.001476   0.000517
                        CHANNELS 3 Zrotation Xrotation Yrotation
                        JOINT LeftWrist
                        {
                            OFFSET  28.869000  -0.000025  -0.000106
                            CHANNELS 3 Zrotation Xrotation Yrotation
                            JOINT LeftFinger0
                            {
                                OFFSET   2.044660  -2.323460   3.252850
                                CHANNELS 3 Zrotation Xrotation Yrotation
                                JOINT LeftFinger01
                                {
                                    OFFSET   3.088130   0.000000   0.000000
                                    CHANNELS 3 Zrotation Xrotation Yrotation
                                    JOINT LeftFinger02
                                    {
                                        OFFSET   2.639460   0.000000   0.000000
                                        CHANNELS 3 Zrotation Xrotation Yrotation
                                        End Site
                                        {
                                            OFFSET   2.582190   0.000000   0.000000
                                        }
                                    }
                                }
                            }
                            JOINT LeftFinger1
                            {
                                OFFSET   8.364480   0.000000   3.252850
                                CHANNELS 3 Zrotation Xrotation Yrotation
                                JOINT LeftFinger11
                                {
                                    OFFSET   4.646930   0.000000   0.000000
                                    CHANNELS 3 Zrotation Xrotation Yrotation
                                    JOINT LeftFinger12
                                    {
                                        OFFSET   2.323460   0.000000   0.000000
                                        CHANNELS 3 Zrotation Xrotation Yrotation
                                        End Site
                                        {
                                            OFFSET   2.273050   0.000000   0.000000
                                        }
                                    }
                                }
                            }
                            JOINT LeftFinger2
                            {
                                OFFSET   8.364490   0.000015   1.078090
                                CHANNELS 3 Zrotation Xrotation Yrotation
                                JOINT LeftFinger21
                                {
                                    OFFSET   5.111620   0.000000   0.000000
                                    CHANNELS 3 Zrotation Xrotation Yrotation
                                    JOINT LeftFinger22
                                    {
                                        OFFSET   2.788160   0.000016   0.000000
                                        CHANNELS 3 Zrotation Xrotation Yrotation
                                        End Site
                                        {
                                            OFFSET   2.727660   0.000000   0.000000
                                        }
                                    }
                                }
                            }
                            JOINT LeftFinger3
                            {
                                OFFSET   7.899780   0.000017  -1.078090
                                CHANNELS 3 Zrotation Xrotation Yrotation
                                JOINT LeftFinger31
                                {
                                    OFFSET   4.646930   0.000000   0.000000
                                    CHANNELS 3 Zrotation Xrotation Yrotation
                                    JOINT LeftFinger32
                                    {
                                        OFFSET   2.323470   0.000000   0.000000
                                        CHANNELS 3 Zrotation Xrotation Yrotation
                                        End Site
                                        {
                                            OFFSET   2.273050   0.000000   0.000000
                                        }
                                    }
                                }
                            }
                            JOINT LeftFinger4
                            {
                                OFFSET   7.435090   0.000000  -3.252850
                                CHANNELS 3 Zrotation Xrotation Yrotation
                                JOINT LeftFinger41
                                {
                                    OFFSET   3.717550   0.000000   0.000000
                                    CHANNELS 3 Zrotation Xrotation Yrotation
                                    JOINT LeftFinger42
                                    {
                                        OFFSET   1.858770   0.000000   0.000000
                                        CHANNELS 3 Zrotation Xrotation Yrotation
                                        End Site
                                        {
                                            OFFSET   1.818440   0.000000   0.000000
                                        }
                                    }
                                }
                            }
                        }
                    }
                }
            }
            JOINT RightCollar
            {
                OFFSET  -3.911900  19.017000  -0.467063
                CHANNELS 3 Zrotation Xrotation Yrotation
                JOINT RightShoulder
                {
                    OFFSET -10.383700   0.000019   0.000000
                    CHANNELS 3 Zrotation Xrotation Yrotation
                    JOINT RightElbow
                    {
                        OFFSET -26.662100   0.001175   0.000102
                        CHANNELS 3 Zrotation Xrotation Yrotation
                        JOINT RightWrist
                        {
                            OFFSET -28.869000   0.000016  -0.000079
                            CHANNELS 3 Zrotation Xrotation Yrotation
                            JOINT RightFinger0
                            {
                                OFFSET  -2.044660  -2.323490   3.252850
                                CHANNELS 3 Zrotation Xrotation Yrotation
                                JOINT RightFinger01
                                {
                                    OFFSET  -3.088140   0.000000   0.000000
                                    CHANNELS 3 Zrotation Xrotation Yrotation
                                    JOINT RightFinger02
                                    {
                                        OFFSET  -2.639460   0.000000   0.000000
                                        CHANNELS 3 Zrotation Xrotation Yrotation
                                        End Site
                                        {
                                            OFFSET  -2.582190   0.000000   0.000000
                                        }
                                    }
                                }
                            }
                            JOINT RightFinger1
                            {
                                OFFSET  -8.364480   0.000000   3.252850
                                CHANNELS 3 Zrotation Xrotation Yrotation
                                JOINT RightFinger11
                                {
                                    OFFSET  -4.646930   0.000000   0.000000
                                    CHANNELS 3 Zrotation Xrotation Yrotation
                                    JOINT RightFinger12
                                    {
                                        OFFSET  -2.323470   0.000000   0.000000
                                        CHANNELS 3 Zrotation Xrotation Yrotation
                                        End Site
                                        {
                                            OFFSET  -2.273050   0.000000   0.000000
                                        }
                                    }
                                }
                            }
                            JOINT RightFinger2
                            {
                                OFFSET  -8.364480   0.000000   1.078090
                                CHANNELS 3 Zrotation Xrotation Yrotation
                                JOINT RightFinger21
                                {
                                    OFFSET  -5.111620   0.000000   0.000000
                                    CHANNELS 3 Zrotation Xrotation Yrotation
                                    JOINT RightFinger22
                                    {
                                        OFFSET  -2.788160   0.000000   0.000000
                                        CHANNELS 3 Zrotation Xrotation Yrotation
                                        End Site
                                        {
                                            OFFSET  -2.727660   0.000000   0.000000
                                        }
                                    }
                                }
                            }
                            JOINT RightFinger3
                            {
                                OFFSET  -7.899780   0.000000  -1.078090
                                CHANNELS 3 Zrotation Xrotation Yrotation
                                JOINT RightFinger31
                                {
                                    OFFSET  -4.646930   0.000000   0.000000
                                    CHANNELS 3 Zrotation Xrotation Yrotation
                                    JOINT RightFinger32
                                    {
                                        OFFSET  -2.323470   0.000000   0.000000
                                        CHANNELS 3 Zrotation Xrotation Yrotation
                                        End Site
                                        {
                                            OFFSET  -2.273050   0.000000   0.000000
                                        }
                                    }
                                }
                            }
                            JOINT RightFinger4
                            {
                                OFFSET  -7.435090   0.000000  -3.252850
                                CHANNELS 3 Zrotation Xrotation Yrotation
                                JOINT RightFinger41
                                {
                                    OFFSET  -3.717550   0.000000   0.000000
                                    CHANNELS 3 Zrotation Xrotation Yrotation
                                    JOINT RightFinger42
                                    {
                                        OFFSET  -1.858770   0.000000   0.000000
                                        CHANNELS 3 Zrotation Xrotation Yrotation
                                        End Site
                                        {
                                            OFFSET  -1.818440   0.000000   0.000000
                                        }
                                    }
                                }
                            }
                        }
                    }
                }
            }
        }
    }
    JOINT LeftHip
    {
        OFFSET   9.783040   0.000000   0.000000
        CHANNELS 3 Zrotation Xrotation Yrotation
        JOINT LeftKnee
        {
            OFFSET   0.000032 -41.789100  -0.002222
            CHANNELS 3 Zrotation Xrotation Yrotation
            JOINT LeftAnkle
            {
                OFFSET   0.000087 -41.133200  -0.000135
                CHANNELS 3 Zrotation Xrotation Yrotation
                JOINT LeftToe
                {
                    OFFSET   0.000000  -6.358960  14.674500
                    CHANNELS 3 Zrotation Xrotation Yrotation
                    End Site
                    {
                        OFFSET   0.000000   0.000000   3.913200
                    }
                }
            }
        }
    }
    JOINT RightHip
    {
        OFFSET  -9.783040   0.000000   0.000000
        CHANNELS 3 Zrotation Xrotation Yrotation
        JOINT RightKnee
        {
            OFFSET   0.000047 -41.789100  -0.000896
            CHANNELS 3 Zrotation Xrotation Yrotation
            JOINT RightAnkle
            {
                OFFSET  -0.000117 -41.133300  -0.000248
                CHANNELS 3 Zrotation Xrotation Yrotation
                JOINT RightToe
                {
                    OFFSET   0.000000  -6.358970  14.674500
                    CHANNELS 3 Zrotation Xrotation Yrotation
                    End Site
                    {
                        OFFSET   0.000000   0.000000   3.913200
                    }
                }
            }
        }
    }
}
MOTION
Frames: 4
Frame Time:   0.016667
 -1.624590  89.491700   0.996612  -1.747720  -5.199950   1.958260   0.534360   2.479060  -1.264460   1.124980   4.945570  -2.555600   0.515167   0.864940  -0.002816   0.846793   1.753020   4.498040  -1.623780  -0.181007   1.877910 -76.865000  10.150900   0.568633  -0.772082   1.046720 -13.631500  11.603600  -4.667490  -4.803600  41.098000  25.057700 -56.552400 -21.814800   0.001880   0.001499  -5.920960   0.002431   0.000114 -24.463300   2.408840  -5.273420 -20.122400  -0.000606   0.005205 -14.080800   0.003850   0.006472 -27.516500  -0.118838   0.221169 -29.306900  -0.000576   0.005275 -19.532100  -0.005779   0.002897 -26.156700  -0.148001   0.284137 -26.157100   0.000000   0.007540 -17.417000  -0.001206   0.005180 -25.213800  -0.143098   0.286392 -37.821300   0.001318   0.000851 -25.189000   0.000399   0.000887   6.554500   1.099850   2.773010  69.840100  -0.766635  -4.755160   1.648230  -7.571410   3.750790 -13.112300   2.297920   7.553790 -43.004700  26.163900  61.625200  15.225000   0.007192  -0.002470   2.612520   0.003471  -0.002420  20.848700   3.321810   8.651180  17.263800  -0.001622  -0.001139  12.084600  -0.003513  -0.006211  23.995100   3.492570   7.792990  24.233200  -0.008156  -0.007114  16.139300  -0.004573  -0.002899  19.906600   1.539730   4.243670  19.963800  -0.003742  -0.011023  13.295900  -0.001437  -0.008678  22.848600   1.755820   4.159070  34.368700  -0.014247  -0.010821  22.889500   0.001130   0.001256   2.325210   7.463440   1.183900   0.851237   0.002360  11.788700  -1.938100  -2.490860   0.905042   0.000000   0.000000   0.000000   2.420620   8.105130  -5.081950   0.919019   0.496055 -17.262000  -0.336689  -4.092980  -0.005243  -0.000000   0.000000   0.000000
 -1.624670  89.491700   0.995381  -1.744860  -5.204330   1.989150   0.534521   2.479280  -1.273290   1.125710   4.945950  -2.573300   0.527342   0.855185  -0.002848   0.866802   1.733270   4.481710  -1.632830  -0.172641   1.897610 -76.883800  10.143200   0.568998  -0.771695   1.046690 -13.639700  11.600100  -4.662050  -4.803220  41.098300  25.055100 -56.536100 -21.818500   0.001881   0.001499  -5.920920   0.002423   0.000134 -24.467400   2.409150  -5.268020 -20.122700  -0.000607   0.005198 -14.080900   0.003853   0.006469 -27.516600  -0.118586   0.221170 -29.310500  -0.000577   0.005271 -19.532000  -0.005780   0.002896 -26.156900  -0.148001   0.291148 -26.157300   0.000000   0.007539 -17.417100  -0.001194   0.005180 -25.220000  -0.143102   0.294880 -37.830600   0.001323   0.000847 -25.195100   0.000401   0.000883   6.547520   1.098180   2.783480  69.787500  -0.747667  -4.762280   1.655670  -7.454020   3.717770 -13.116800   2.213570   7.538420 -43.009600  26.220100  61.710700  15.241100   0.007197  -0.002474   2.620540   0.003464  -0.002422  20.869600   3.326800   8.654510  17.281300  -0.001620  -0.001131  12.096900  -0.003512  -0.006213  24.016700   3.497410   7.795730  24.255200  -0.008156  -0.007111  16.153900  -0.004573  -0.002900  19.925700   1.543910   4.251100  19.983000  -0.003741  -0.011023  13.308700  -0.001436  -0.008676  22.864500   1.760270   4.166320  34.394000  -0.014247  -0.010825  22.906400   0.001131   0.001257   2.324770   7.462910   1.184170   0.851421   0.002425  11.776700  -1.943100  -2.479920   0.890848   0.000000   0.000000   0.000000   2.418160   8.078330  -5.081780   0.918020   0.552950 -17.288900  -0.333464  -4.119450  -0.008163   0.000000   0.000000   0.000000
 -1.624780  89.491600   0.991802  -1.739760  -5.213020   2.043520   0.534763   2.480890  -1.287830   1.126840   4.949000  -2.602460   0.548735   0.833336  -0.002904   0.901952   1.689070   4.458590  -1.645560  -0.164274   1.929550 -76.914500  10.135600   0.569363  -0.771225   1.046640 -13.652600  11.593000  -4.651260  -4.802810  41.092600  25.048900 -56.517200 -21.825700   0.001887   0.001499  -5.920880   0.002413   0.000165 -24.473700   2.409580  -5.262610 -20.122900  -0.000612   0.005180 -14.081000   0.003856   0.006464 -27.516700  -0.118335   0.221173 -29.317000  -0.000578   0.005262 -19.531900  -0.005782   0.002891 -26.157100  -0.148002   0.301380 -26.157600   0.000000   0.007536 -17.417300  -0.001183   0.005180 -25.226900  -0.143107   0.303737 -37.840900   0.001334   0.000829 -25.202000   0.000411   0.000872   6.540750   1.086530   2.807890  69.689400  -0.677109  -4.778140   1.676270  -7.273500   3.660620 -13.121100   2.129240   7.517970 -43.009300  26.306300  61.854000  15.267500   0.007207  -0.002480   2.633750   0.003457  -0.002430  20.900500   3.337650   8.668340  17.307500  -0.001617  -0.001113  12.115300  -0.003509  -0.006218  24.046000   3.509310   7.811180  24.285800  -0.008154  -0.007105  16.174300  -0.004572  -0.002901  19.944200   1.552890   4.270940  20.002200  -0.003738  -0.011022  13.321500  -0.001436  -0.008673  22.885000   1.770280   4.185660  34.424700  -0.014250  -0.010835  22.926900   0.001135   0.001260   2.324190   7.459150   1.186030   0.852703   0.002883  11.751500  -1.952730  -2.468990   0.864499  -0.000000   0.000000  -0.000000   2.415430   8.051530  -5.081600   0.917240   0.609777 -17.331300  -0.330836  -4.145930  -0.019297   0.000000   0.000000  -0.000000
 -1.624870  89.491500   0.985786  -1.735030  -5.222340   2.093520   0.535075   2.488560  -1.299010   1.128110   4.964190  -2.624950   0.568220   0.805508  -0.002949   0.933973   1.632840   4.447790  -1.649610  -0.173656   1.952840 -76.939400  10.139200   0.568451  -0.773043   1.038870 -13.659400  11.584200  -4.640750  -4.804960  41.083600  25.041900 -56.515500 -21.834500   0.001899   0.001485  -5.920980   0.002411   0.000183 -24.478600   2.409740  -5.267460 -20.122300  -0.000627   0.005152 -14.081100   0.003854   0.006456 -27.516800  -0.118398   0.222340 -29.324800  -0.000578   0.005252 -19.532800  -0.005788   0.002881 -26.157200  -0.147939   0.306465 -26.157700   0.000035   0.007534 -17.417500  -0.001189   0.005169 -25.227700  -0.143043   0.303982 -37.842100   0.001348   0.000793 -25.202900   0.000434   0.000856   6.553620   1.051720   2.842850  69.591500  -0.521757  -4.806070   1.709330  -7.154060   3.611370 -13.105100   2.163140   7.512190 -42.983000  26.371000  61.999200  15.281600   0.007217  -0.002483   2.640790   0.003465  -0.002445  20.919300   3.356060   8.707010  17.324900  -0.001615  -0.001087  12.127500  -0.003505  -0.006225  24.055300   3.532710   7.859280  24.298000  -0.008147  -0.007097  16.182500  -0.004572  -0.002907  19.940900   1.567920   4.313170  20.000900  -0.003733  -0.011020  13.320700  -0.001438  -0.008668  22.888800   1.788050   4.226790  34.431100  -0.014257  -0.010851  22.931100   0.001140   0.001267   2.327630   7.436860   1.195360   0.854649   0.041840  11.721200  -1.964580  -2.475640   0.836006   0.000000   0.000000  -0.000000   2.415710   8.066960  -5.079350   0.918058   0.591076 -17.360000  -0.338003  -4.139770  -0.042209  -0.000000   0.000000   0.000000
